<svg width="409" height="47" viewBox="0 0 409 47" fill="none" xmlns="http://www.w3.org/2000/svg">
<g clip-path="url(#clip0)">
<path d="M8.75 29.6941L7.32812 26.0613H2.75L1.34375 29.6941H0L4.51562 18.2253H5.63281L10.125 29.6941H8.75ZM6.91406 24.866L5.58594 21.3269C5.41406 20.879 5.23698 20.3295 5.05469 19.6785C4.9401 20.1785 4.77604 20.7279 4.5625 21.3269L3.21875 24.866H6.91406ZM13.1834 24.9441V29.6941H11.8553V18.2722H14.9881C16.3892 18.2722 17.423 18.5404 18.0897 19.0769C18.7616 19.6134 19.0975 20.4207 19.0975 21.4988C19.0975 23.0092 18.3319 24.03 16.8006 24.5613L19.9022 29.6941H18.3319L15.5662 24.9441H13.1834ZM13.1834 23.8035H15.0037C15.9412 23.8035 16.6287 23.6186 17.0662 23.2488C17.5037 22.8738 17.7225 22.3139 17.7225 21.5691C17.7225 20.8139 17.4985 20.2696 17.0506 19.9363C16.6079 19.6029 15.8944 19.4363 14.91 19.4363H13.1834V23.8035ZM31.0231 23.8738C31.0231 25.7592 30.5101 27.2019 29.4841 28.2019C28.4632 29.1967 26.9919 29.6941 25.07 29.6941H21.9059V18.2722H25.4059C27.182 18.2722 28.5622 18.7644 29.5466 19.7488C30.5309 20.7332 31.0231 22.1082 31.0231 23.8738ZM29.6169 23.9207C29.6169 22.4311 29.2419 21.3087 28.4919 20.5535C27.7471 19.7983 26.6377 19.4207 25.1637 19.4207H23.2341V28.5457H24.8512C26.4346 28.5457 27.6247 28.1576 28.4216 27.3816C29.2184 26.6003 29.6169 25.4467 29.6169 23.9207ZM42.3628 18.2722V25.6628C42.3628 26.9649 41.9696 27.9884 41.1831 28.7332C40.3967 29.4779 39.3159 29.8503 37.9409 29.8503C36.5659 29.8503 35.5008 29.4753 34.7456 28.7253C33.9956 27.9753 33.6206 26.9441 33.6206 25.6316V18.2722H34.9487V25.7253C34.9487 26.6785 35.2092 27.4102 35.73 27.9207C36.2508 28.4311 37.0165 28.6863 38.0269 28.6863C38.9904 28.6863 39.7326 28.4311 40.2534 27.9207C40.7743 27.405 41.0347 26.6681 41.0347 25.7097V18.2722H42.3628ZM45.5541 29.6941V18.2722H46.8822V29.6941H45.5541ZM59.1047 29.6941H57.5891L51.3469 20.1082H51.2844C51.3677 21.2332 51.4094 22.2644 51.4094 23.2019V29.6941H50.1828V18.2722H51.6828L57.9094 27.8191H57.9719C57.9615 27.6785 57.938 27.2279 57.9016 26.4675C57.8651 25.7019 57.8521 25.155 57.8625 24.8269V18.2722H59.1047V29.6941ZM72.3194 23.9675C72.3194 25.7957 71.8558 27.2332 70.9287 28.28C70.0069 29.3269 68.723 29.8503 67.0772 29.8503C65.3949 29.8503 64.0954 29.3373 63.1787 28.3113C62.2673 27.28 61.8116 25.8269 61.8116 23.9519C61.8116 22.0925 62.2699 20.6524 63.1866 19.6316C64.1032 18.6056 65.4053 18.0925 67.0928 18.0925C68.7334 18.0925 70.0147 18.6134 70.9366 19.655C71.8584 20.6967 72.3194 22.1342 72.3194 23.9675ZM63.2178 23.9675C63.2178 25.5144 63.5459 26.6889 64.2022 27.491C64.8636 28.2878 65.822 28.6863 67.0772 28.6863C68.3428 28.6863 69.2985 28.2878 69.9444 27.491C70.5902 26.6941 70.9131 25.5196 70.9131 23.9675C70.9131 22.4311 70.5902 21.267 69.9444 20.4753C69.3037 19.6785 68.3532 19.28 67.0928 19.28C65.8272 19.28 64.8636 19.6811 64.2022 20.4832C63.5459 21.28 63.2178 22.4415 63.2178 23.9675ZM79.1122 23.741H79.9559C80.3726 23.741 80.7059 23.6342 80.9559 23.4207C81.2111 23.2019 81.3388 22.9259 81.3388 22.5925C81.3388 22.2019 81.2268 21.9233 81.0028 21.7566C80.7789 21.5847 80.4247 21.4988 79.9403 21.4988H79.1122V23.741ZM82.5028 22.5613C82.5028 22.9779 82.3908 23.3477 82.1669 23.6707C81.9481 23.9884 81.6382 24.2253 81.2372 24.3816L83.0966 27.4675H81.7841L80.1669 24.7019H79.1122V27.4675H77.9559V20.5066H79.995C80.8596 20.5066 81.4924 20.6759 81.8934 21.0144C82.2997 21.3529 82.5028 21.8686 82.5028 22.5613ZM74.245 23.9832C74.245 22.9415 74.5054 21.9649 75.0263 21.0535C75.5471 20.142 76.2632 19.4233 77.1747 18.8972C78.0861 18.3712 79.0679 18.1082 80.12 18.1082C81.1617 18.1082 82.1382 18.3686 83.0497 18.8894C83.9611 19.4102 84.6799 20.1264 85.2059 21.0378C85.732 21.9493 85.995 22.9311 85.995 23.9832C85.995 25.0092 85.7424 25.9727 85.2372 26.8738C84.732 27.7748 84.0236 28.4962 83.1122 29.0378C82.2007 29.5795 81.2033 29.8503 80.12 29.8503C79.0419 29.8503 78.0471 29.5821 77.1356 29.0457C76.2242 28.504 75.5132 27.7826 75.0028 26.8816C74.4976 25.9806 74.245 25.0144 74.245 23.9832ZM75.0653 23.9832C75.0653 24.8842 75.2919 25.7279 75.745 26.5144C76.1981 27.2957 76.8153 27.9128 77.5966 28.366C78.383 28.8139 79.2242 29.0378 80.12 29.0378C81.0263 29.0378 81.8674 28.8113 82.6434 28.3582C83.4195 27.905 84.0341 27.2931 84.4872 26.5222C84.9455 25.7462 85.1747 24.8998 85.1747 23.9832C85.1747 23.0769 84.9481 22.2358 84.495 21.4597C84.0419 20.6837 83.4273 20.0691 82.6513 19.616C81.8804 19.1576 81.0367 18.9285 80.12 18.9285C79.2138 18.9285 78.3726 19.155 77.5966 19.6082C76.8205 20.0613 76.2033 20.6759 75.745 21.4519C75.2919 22.2227 75.0653 23.0665 75.0653 23.9832Z" fill="black"/>
<path d="M99.6562 25.9988V24.8113H103.492V25.9988H99.6562Z" fill="black"/>
<g clip-path="url(#clip1)">
<path fill-rule="evenodd" clip-rule="evenodd" d="M182 15.8537C182 7.10522 174.805 0 165.987 0C165.175 0 164.34 0.0462881 163.528 0.185152C156.672 1.18035 152.071 6.24889 149.5 10.1371C146.929 6.24889 142.328 1.18035 135.472 0.185152C134.66 0.0694321 133.825 0 133.013 0C124.172 0 117 7.10522 117 15.8537C117 24.6021 124.195 31.7073 133.013 31.7073C133.825 31.7073 134.66 31.661 135.494 31.5222C142.35 30.5038 146.951 25.4353 149.523 21.5471C152.094 25.4353 156.695 30.5038 163.551 31.5222C164.363 31.6379 165.197 31.7073 166.032 31.7073C174.805 31.7073 182 24.6021 182 15.8537ZM134.682 25.9676C134.118 26.0602 133.554 26.0833 132.991 26.0833C127.172 26.0833 122.458 21.4776 122.458 15.8536C122.458 10.2065 127.194 5.62398 133.013 5.62398C133.577 5.62398 134.141 5.67027 134.705 5.7397C141.178 6.68861 145.124 13.2384 146.478 15.8536C145.102 18.4921 141.132 25.0187 134.682 25.9676ZM164.295 5.7397C157.822 6.68861 153.853 13.2384 152.522 15.8536C153.853 18.4689 157.822 25.0187 164.295 25.9676C164.859 26.037 165.423 26.0833 165.987 26.0833C171.783 26.0833 176.519 21.5008 176.519 15.8536C176.519 10.2296 171.806 5.62398 165.987 5.62398C165.423 5.62398 164.859 5.67027 164.295 5.7397ZM128.496 14.1554H138.181V17.2034H128.496V14.1554ZM170.456 17.2256H167.19V20.4293H164.06V17.2256H160.794V14.1554H164.06V10.9517H167.19V14.1554H170.456V17.2256ZM177.878 1.75806C177.878 0.796622 178.662 0 179.614 0C180.594 0 181.379 0.796622 181.379 1.75806C181.379 2.77444 180.594 3.51613 179.614 3.51613C178.662 3.51613 177.878 2.7195 177.878 1.75806ZM179.639 0.659123H178.771V2.8567H179.331V2.11502H179.639L179.947 2.8567H180.563L180.143 2.03261C180.423 1.92273 180.563 1.70297 180.563 1.40081C180.563 0.93382 180.311 0.659123 179.639 0.659123ZM181.068 1.75787C181.068 0.961248 180.452 0.274505 179.612 0.274505C178.772 0.274505 178.184 0.878839 178.184 1.75787C178.184 2.66437 178.856 3.24124 179.612 3.24124C180.452 3.24124 181.068 2.66437 181.068 1.75787ZM179.975 1.37337C179.975 1.64807 179.835 1.73048 179.583 1.73048L179.303 1.75795V1.04373H179.583C179.891 1.04373 179.975 1.12614 179.975 1.37337Z" fill="#00979D"/>
<path d="M117.617 46.1265L120.495 36.7073H123.111L126.12 46.1265H123.635L123.111 44.295H120.495L119.972 46.1265H117.617ZM121.803 39.0621L120.887 42.4635H122.719L121.803 39.0621Z" fill="#00979D"/>
<path d="M127.559 36.8381H131.353C133.969 36.8381 134.885 38.1463 134.885 39.9778C134.885 41.2861 134.362 42.2018 133.315 42.7251L135.147 46.1265H132.4L131.091 43.2484H129.914V46.2573H127.559V36.8381ZM132.53 39.9778C132.53 39.1929 132.269 38.6696 131.091 38.6696H129.914V41.2861H131.091C132.007 41.4169 132.53 41.0244 132.53 39.9778Z" fill="#00979D"/>
<path d="M136.848 36.8381H139.857C143.389 36.8381 144.566 38.5388 144.566 41.4169C144.566 43.6409 143.912 46.1265 139.857 46.1265H136.717V36.8381H136.848ZM139.202 38.6696V44.1642H140.118C142.081 44.1642 142.211 42.9868 142.211 41.4169C142.211 39.5854 142.081 38.6696 139.987 38.6696H139.202Z" fill="#00979D"/>
<path d="M151.369 36.8381H153.593V42.9868C153.593 45.734 151.5 46.3881 149.799 46.3881C148.229 46.3881 146.136 45.8648 146.136 42.9868V36.8381H148.491V42.5943C148.491 44.1642 149.014 44.5566 149.93 44.5566C150.977 44.5566 151.369 44.0333 151.369 42.5943V36.8381Z" fill="#00979D"/>
<path d="M155.686 44.295H158.172V38.8004H155.817V36.8381H163.012V38.8004H160.526V44.295H163.012V46.2573H155.817V44.295H155.686Z" fill="#00979D"/>
<path d="M166.937 46.1265H164.713V36.8381H167.329L170.338 42.4635V36.8381H172.562V46.2573H170.207L167.068 40.2395L166.937 46.1265Z" fill="#00979D"/>
<path d="M181.981 41.5477C181.981 44.295 180.935 46.3882 177.926 46.3882C175.178 46.3882 174.001 44.8183 174.001 41.6786C174.001 38.8005 175.048 36.7073 177.926 36.7073C180.673 36.7073 181.981 37.8847 181.981 41.5477ZM179.496 41.5477C179.496 39.1929 179.365 38.6696 177.926 38.6696C176.748 38.5388 176.487 39.3238 176.487 41.6786C176.487 43.5101 176.617 44.5566 177.926 44.5566C179.365 44.4258 179.496 43.6409 179.496 41.5477Z" fill="#00979D"/>
</g>
<path d="M194.656 25.9988V24.8113H198.492V25.9988H194.656Z" fill="black"/>
<g clip-path="url(#clip2)">
<path fill-rule="evenodd" clip-rule="evenodd" d="M277 23.1941C277 14.4456 269.805 7.34042 260.987 7.34042C260.175 7.34042 259.34 7.38671 258.528 7.52558C251.672 8.52077 247.071 13.5893 244.5 17.4775C241.929 13.5893 237.328 8.52077 230.472 7.52558C229.66 7.40986 228.825 7.34042 228.013 7.34042C219.172 7.34042 212 14.4456 212 23.1941C212 31.9425 219.195 39.0477 228.013 39.0477C228.825 39.0477 229.66 39.0015 230.494 38.8626C237.35 37.8443 241.951 32.7757 244.523 28.8875C247.094 32.7757 251.695 37.8443 258.551 38.8626C259.363 38.9783 260.197 39.0477 261.032 39.0477C269.805 39.0477 277 31.9425 277 23.1941ZM229.682 33.308C229.118 33.4006 228.554 33.4237 227.991 33.4237C222.172 33.4237 217.458 28.8181 217.458 23.1941C217.458 17.5469 222.194 12.9644 228.013 12.9644C228.577 12.9644 229.141 13.0107 229.705 13.0801C236.178 14.029 240.124 20.5788 241.478 23.1941C240.102 25.8325 236.132 32.3591 229.682 33.308ZM259.295 13.0801C252.822 14.029 248.853 20.5788 247.522 23.1941C248.853 25.8093 252.822 32.3591 259.295 33.308C259.859 33.3774 260.423 33.4237 260.987 33.4237C266.783 33.4237 271.519 28.8412 271.519 23.1941C271.519 17.5701 266.806 12.9644 260.987 12.9644C260.423 12.9644 259.859 13.0107 259.295 13.0801ZM223.496 21.4958H233.181V24.5438H223.496V21.4958ZM265.456 24.566H262.19V27.7697H259.06V24.566H255.794V21.4958H259.06V18.2921H262.19V21.4958H265.456V24.566ZM272.878 9.09849C272.878 8.13705 273.662 7.34042 274.614 7.34042C275.594 7.34042 276.379 8.13705 276.379 9.09849C276.379 10.1149 275.594 10.8565 274.614 10.8565C273.662 10.8565 272.878 10.0599 272.878 9.09849ZM274.639 7.99955H273.771V10.1971H274.331V9.45544H274.639L274.947 10.1971H275.563L275.143 9.37303C275.423 9.26315 275.563 9.0434 275.563 8.74123C275.563 8.27424 275.311 7.99955 274.639 7.99955ZM276.068 9.09829C276.068 8.30167 275.452 7.61493 274.612 7.61493C273.772 7.61493 273.184 8.21926 273.184 9.09829C273.184 10.0048 273.856 10.5817 274.612 10.5817C275.452 10.5817 276.068 10.0048 276.068 9.09829ZM274.975 8.71379C274.975 8.98849 274.835 9.0709 274.583 9.0709L274.303 9.09837V8.38416H274.583C274.891 8.38416 274.975 8.46657 274.975 8.71379Z" fill="#00979D"/>
</g>
<path d="M289.656 25.9988V24.8113H293.492V25.9988H289.656Z" fill="black"/>
<path d="M307 30.0057L311.162 16.3841H314.946L319.297 30.0057H315.703L314.946 27.3571H311.162L310.405 30.0057H307ZM313.054 19.7895L311.73 24.7084H314.378L313.054 19.7895Z" fill="#00979D"/>
<path d="M321.378 16.3833H326.865C330.649 16.3833 331.973 18.2752 331.973 20.9238C331.973 22.8157 331.216 24.14 329.703 24.8968L332.351 29.8157H328.378L326.487 25.6535H324.784V30.0049H321.378V16.3833ZM328.568 20.9238C328.568 19.7887 328.189 19.0319 326.487 19.0319H324.784V22.8157H326.487C327.811 23.0049 328.568 22.4373 328.568 20.9238Z" fill="#00979D"/>
<path d="M334.811 16.3833H339.162C344.27 16.3833 345.973 18.8427 345.973 23.0049C345.973 26.2211 345.027 29.8157 339.162 29.8157H334.622V16.3833H334.811ZM338.216 19.0319V26.9779H339.541C342.378 26.9779 342.568 25.2752 342.568 23.0049C342.568 20.3562 342.378 19.0319 339.351 19.0319H338.216Z" fill="#00979D"/>
<path d="M355.811 16.3833H359.027V25.2752C359.027 29.2481 356 30.1941 353.54 30.1941C351.27 30.1941 348.243 29.4373 348.243 25.2752V16.3833H351.649V24.7076C351.649 26.9779 352.405 27.5454 353.73 27.5454C355.243 27.5454 355.811 26.7887 355.811 24.7076V16.3833Z" fill="#00979D"/>
<path d="M362.054 27.1671H365.649V19.2211H362.243V16.3833H372.649V19.2211H369.054V27.1671H372.649V30.0049H362.243V27.1671H362.054Z" fill="#00979D"/>
<path d="M378.324 29.8157H375.108V16.3833H378.892L383.243 24.5184V16.3833H386.459V30.0049H383.054L378.513 21.3022L378.324 29.8157Z" fill="#00979D"/>
<path d="M400.081 23.1941C400.081 27.1671 398.568 30.1941 394.216 30.1941C390.243 30.1941 388.541 27.9238 388.541 23.3833C388.541 19.2211 390.054 16.1941 394.216 16.1941C398.189 16.1941 400.081 17.8968 400.081 23.1941ZM396.486 23.1941C396.486 19.7887 396.297 19.0319 394.216 19.0319C392.513 18.8427 392.135 19.9779 392.135 23.3833C392.135 26.0319 392.324 27.5454 394.216 27.5454C396.297 27.3563 396.486 26.2211 396.486 23.1941Z" fill="#00979D"/>
<path d="M402.352 19.2211C402.352 17.5184 403.676 16.1941 405.189 16.1941C406.892 16.1941 408.216 17.5184 408.216 19.2211C408.216 20.9238 406.892 22.2481 405.189 22.2481C403.676 22.059 402.352 20.7346 402.352 19.2211ZM407.649 19.2211C407.649 17.8968 406.703 16.7617 405.189 16.7617C403.865 16.7617 402.919 17.7076 402.919 19.2211C402.919 20.7346 404.054 21.6806 405.189 21.6806C406.703 21.6806 407.649 20.7346 407.649 19.2211ZM403.676 17.3292H405.379C406.514 17.3292 406.892 17.8968 406.892 18.4644C406.892 18.8427 406.703 19.2211 406.325 19.5995L406.892 20.9238H405.757L405.379 19.7887H405V20.9238H403.865V17.3292H403.676ZM405.189 19.0319C405.568 19.0319 405.757 18.8427 405.757 18.4644C405.757 18.086 405.568 18.086 405.189 18.086H404.811V19.0319H405.189Z" fill="#00979D"/>
</g>
<defs>
<clipPath id="clip0">
<rect width="408.216" height="46.3882" fill="white"/>
</clipPath>
<clipPath id="clip1">
<rect width="65" height="46.3882" fill="white" transform="translate(117)"/>
</clipPath>
<clipPath id="clip2">
<rect width="65" height="31.7073" fill="white" transform="translate(212 7.34042)"/>
</clipPath>
</defs>
</svg>
